<svg width="40" height="41" viewBox="0 0 40 41" fill="none" xmlns="http://www.w3.org/2000/svg">
<rect y="0.578125" width="40" height="40" rx="20" fill="#F4F4F4"/>
<g clip-path="url(#clip0_617_425)">
<g clip-path="url(#clip1_617_425)">
<path d="M20.0052 12.2441C22.2694 12.2441 22.5519 12.2525 23.4402 12.2941C24.3277 12.3358 24.9319 12.475 25.4636 12.6816C26.0136 12.8933 26.4769 13.18 26.9402 13.6425C27.364 14.0591 27.6919 14.563 27.9011 15.1191C28.1069 15.65 28.2469 16.255 28.2886 17.1425C28.3277 18.0308 28.3386 18.3133 28.3386 20.5775C28.3386 22.8417 28.3302 23.1242 28.2886 24.0125C28.2469 24.9 28.1069 25.5042 27.9011 26.0359C27.6925 26.5923 27.3645 27.0964 26.9402 27.5125C26.5235 27.9361 26.0197 28.264 25.4636 28.4734C24.9327 28.6791 24.3277 28.8192 23.4402 28.8609C22.5519 28.9 22.2694 28.9109 20.0052 28.9109C17.741 28.9109 17.4585 28.9025 16.5702 28.8609C15.6827 28.8192 15.0785 28.6791 14.5469 28.4734C13.9905 28.2646 13.4865 27.9366 13.0702 27.5125C12.6464 27.096 12.3185 26.5921 12.1094 26.0359C11.9027 25.505 11.7635 24.9 11.7219 24.0125C11.6827 23.1242 11.6719 22.8417 11.6719 20.5775C11.6719 18.3133 11.6802 18.0308 11.7219 17.1425C11.7635 16.2541 11.9027 15.6508 12.1094 15.1191C12.3179 14.5626 12.6459 14.0586 13.0702 13.6425C13.4866 13.2185 13.9906 12.8906 14.5469 12.6816C15.0785 12.475 15.6819 12.3358 16.5702 12.2941C17.4585 12.255 17.741 12.2441 20.0052 12.2441ZM20.0052 16.4108C18.9001 16.4108 17.8403 16.8498 17.0589 17.6312C16.2775 18.4126 15.8385 19.4724 15.8385 20.5775C15.8385 21.6826 16.2775 22.7424 17.0589 23.5238C17.8403 24.3052 18.9001 24.7442 20.0052 24.7442C21.1103 24.7442 22.1701 24.3052 22.9515 23.5238C23.7329 22.7424 24.1719 21.6826 24.1719 20.5775C24.1719 19.4724 23.7329 18.4126 22.9515 17.6312C22.1701 16.8498 21.1103 16.4108 20.0052 16.4108ZM25.4219 16.2025C25.4219 15.9262 25.3121 15.6613 25.1168 15.4659C24.9214 15.2706 24.6565 15.1608 24.3802 15.1608C24.104 15.1608 23.839 15.2706 23.6437 15.4659C23.4483 15.6613 23.3386 15.9262 23.3386 16.2025C23.3386 16.4787 23.4483 16.7437 23.6437 16.9391C23.839 17.1344 24.104 17.2441 24.3802 17.2441C24.6565 17.2441 24.9214 17.1344 25.1168 16.9391C25.3121 16.7437 25.4219 16.4787 25.4219 16.2025ZM20.0052 18.0775C20.6683 18.0775 21.3042 18.3409 21.773 18.8097C22.2418 19.2786 22.5052 19.9144 22.5052 20.5775C22.5052 21.2406 22.2418 21.8765 21.773 22.3453C21.3042 22.814 20.6683 23.0775 20.0052 23.0775C19.3422 23.0775 18.7063 22.814 18.2374 22.3453C17.7686 21.8765 17.5052 21.2406 17.5052 20.5775C17.5052 19.9144 17.7686 19.2786 18.2374 18.8097C18.7063 18.3409 19.3422 18.0775 20.0052 18.0775Z" fill="black"/>
</g>
</g>
<defs>
<clipPath id="clip0_617_425">
<rect width="20" height="20" fill="white" transform="translate(10 10.5781)"/>
</clipPath>
<clipPath id="clip1_617_425">
<rect width="20" height="20" fill="white" transform="translate(10 10.5781)"/>
</clipPath>
</defs>
</svg>
