<svg width="64" height="69" viewBox="0 0 64 69" fill="none" xmlns="http://www.w3.org/2000/svg">
<g clip-path="url(#clip0_617_96)">
<path fill-rule="evenodd" clip-rule="evenodd" d="M50.0704 59.4499C47.0982 58.7356 44.2361 58.7823 41.2214 58.6967C40.6327 58.6801 40.1432 59.132 40.1255 59.7057C40.1078 60.2796 40.5724 60.7586 41.1611 60.7756C44.0197 60.8567 46.74 60.7912 49.5632 61.4691C50.1342 61.6064 50.7123 61.265 50.8506 60.7077C50.9925 60.1507 50.6414 59.5868 50.0704 59.4499Z" fill="white"/>
<path fill-rule="evenodd" clip-rule="evenodd" d="M55.8309 53.3815C51.2983 48.5355 45.4676 43.9695 39.5802 40.778C39.0659 40.4997 38.4168 40.681 38.1331 41.1829C37.8494 41.6847 38.0338 42.3183 38.5481 42.5966C44.2404 45.6827 49.8797 50.0986 54.2598 54.7846C54.657 55.2081 55.3309 55.2375 55.7636 54.8504C56.1963 54.4633 56.2282 53.8051 55.8309 53.3815Z" fill="white"/>
<path fill-rule="evenodd" clip-rule="evenodd" d="M60.7793 52.1539C61.5277 47.7217 60.2509 43.1533 58.4457 39.1231C58.208 38.5973 57.5803 38.3574 57.0447 38.5872C56.5056 38.8174 56.2609 39.4312 56.495 39.957C58.1406 43.6274 59.3607 47.7786 58.6797 51.8153C58.584 52.3817 58.9777 52.9172 59.5558 53.0104C60.1339 53.104 60.6836 52.7199 60.7793 52.1539Z" fill="white"/>
</g>
<defs>
<clipPath id="clip0_617_96">
<rect width="23" height="24" fill="white" transform="translate(38 38)"/>
</clipPath>
</defs>
</svg>
