<svg width="340" height="20" viewBox="0 0 340 20" fill="none" xmlns="http://www.w3.org/2000/svg">
<path fill-rule="evenodd" clip-rule="evenodd" d="M144.402 2.39402C128.428 3.03338 112.643 3.81953 97.249 4.67899C75.4574 5.89482 53.6744 7.15259 32.0226 9.14403C25.2071 9.77291 18.2859 10.1712 11.513 10.9573C7.26139 11.4499 1.62388 12.152 0.884026 12.2988C0.497052 12.3826 0.328229 12.5085 0.273678 12.5504C-0.109886 12.8439 -0.0398999 13.1268 0.176601 13.3469C0.263542 13.4412 0.48339 13.6719 1.09368 13.7034C41.9083 15.852 83.6435 11.6595 124.508 11.2193C195.373 10.4647 268.387 13.4623 338.69 20.0026C339.303 20.055 339.9 19.7929 339.985 19.4051C340.088 19.0278 339.644 18.6609 339.031 18.6085C268.608 12.0577 195.475 9.04959 124.473 9.81472C86.3898 10.2235 47.5544 13.9025 9.41787 12.6447C10.2941 12.5399 11.1533 12.4351 11.9375 12.3407C18.6831 11.5546 25.5753 11.1669 32.3636 10.538C53.9693 8.54655 75.708 7.2888 97.4706 6.08345C124.474 4.57415 152.653 3.27446 181.053 2.66654C191.214 2.76087 201.34 2.85525 211.466 2.97054C233.371 3.22209 255.38 3.95579 277.234 4.94103C283.815 5.24498 290.395 5.5594 296.975 5.83191C299.157 5.92624 304.783 6.19871 305.567 6.17775C306.539 6.15678 306.726 5.65373 306.743 5.56988C306.794 5.38121 306.76 5.11917 306.283 4.89906C306.232 4.86762 305.925 4.76274 305.243 4.69985C265.506 0.989476 223.075 0.371178 181.088 1.26209C136.799 0.874279 92.3393 0.706502 48.163 0.52832C47.5305 0.52832 47.014 0.842805 47.0089 1.23061C47.0055 1.61842 47.5151 1.93291 48.1476 1.9434C80.1351 2.06917 112.285 2.19487 144.402 2.39402Z" fill="black"/>
</svg>
