<svg width="40" height="41" viewBox="0 0 40 41" fill="none" xmlns="http://www.w3.org/2000/svg">
<rect y="0.578125" width="40" height="40" rx="20" fill="#F4F4F4"/>
<path fill-rule="evenodd" clip-rule="evenodd" d="M20 12.5781C18.5897 12.5778 17.2043 12.9503 15.9844 13.6579C14.7644 14.3656 13.7532 15.3831 13.0532 16.6075C12.3532 17.8318 11.9893 19.2195 11.9984 20.6298C12.0075 22.0401 12.3893 23.4229 13.105 24.6381L13.674 25.3561L12.977 27.7151L15.297 27.0671L15.676 27.3101C16.7219 27.9816 17.91 28.4002 19.1458 28.5326C20.3817 28.665 21.6314 28.5076 22.7959 28.0729C23.9603 27.6382 25.0075 26.9382 25.8543 26.0283C26.7011 25.1185 27.3242 24.0238 27.6742 22.8312C28.0243 21.6385 28.0916 20.3807 27.8709 19.1575C27.6502 17.9344 27.1475 16.7794 26.4027 15.7843C25.6579 14.7893 24.6915 13.9814 23.5801 13.4249C22.4687 12.8683 21.243 12.5784 20 12.5781ZM10 20.5781C10 15.0551 14.477 10.5781 20 10.5781C25.523 10.5781 30 15.0551 30 20.5781C30 26.1011 25.523 30.5781 20 30.5781C18.2383 30.5806 16.5075 30.1158 14.984 29.2311L10.036 30.6131L11.462 25.7841L11.456 25.7771L11.423 25.7221C10.4895 24.1688 9.99754 22.3903 10 20.5781Z" fill="black"/>
<path d="M24.7325 22.0702C24.6945 22.0522 23.2355 21.3342 22.9765 21.2402C22.8684 21.1956 22.7533 21.1702 22.6365 21.1652C22.4405 21.1652 22.2745 21.2632 22.1465 21.4562C22.0005 21.6732 21.5595 22.1882 21.4235 22.3422C21.4055 22.3622 21.3815 22.3872 21.3665 22.3872C21.3535 22.3872 21.1275 22.2942 21.0595 22.2642C19.4955 21.5842 18.3085 19.9512 18.1455 19.6752C18.1225 19.6352 18.1215 19.6182 18.1215 19.6182C18.1265 19.5972 18.1795 19.5442 18.2065 19.5172C18.2865 19.4382 18.3725 19.3352 18.4555 19.2342L18.5725 19.0942C18.6935 18.9542 18.7475 18.8442 18.8095 18.7192L18.8425 18.6532C18.892 18.5531 18.916 18.4424 18.9125 18.3307C18.9091 18.2191 18.8781 18.1101 18.8225 18.0132C18.7885 17.9442 18.1725 16.4582 18.1075 16.3022C17.9495 15.9252 17.7415 15.7502 17.4525 15.7502C17.4255 15.7502 17.4525 15.7502 17.3405 15.7552C17.2035 15.7602 16.4575 15.8592 16.1275 16.0662C15.7775 16.2862 15.1875 16.9902 15.1875 18.2262C15.1875 19.3382 15.8925 20.3882 16.1955 20.7872L16.2365 20.8472C17.3975 22.5422 18.8445 23.7982 20.3105 24.3842C21.7225 24.9482 22.3915 25.0142 22.7715 25.0142C22.9315 25.0142 23.0595 25.0012 23.1715 24.9902L23.2435 24.9832C23.7315 24.9402 24.8035 24.3842 25.0475 23.7072C25.2395 23.1732 25.2905 22.5902 25.1625 22.3782C25.0745 22.2342 24.9235 22.1622 24.7325 22.0702Z" fill="black"/>
</svg>
