<svg width="40" height="41" viewBox="0 0 40 41" fill="none" xmlns="http://www.w3.org/2000/svg">
<rect y="0.578125" width="40" height="40" rx="20" fill="#F4F4F4"/>
<path d="M28 26.5781H26V17.8281L20 21.5781L14 17.8281V26.5781H12V14.5781H13.2L20 18.8281L26.8 14.5781H28M28 12.5781H12C10.89 12.5781 10 13.4681 10 14.5781V26.5781C10 27.1086 10.2107 27.6173 10.5858 27.9923C10.9609 28.3674 11.4696 28.5781 12 28.5781H28C28.5304 28.5781 29.0391 28.3674 29.4142 27.9923C29.7893 27.6173 30 27.1086 30 26.5781V14.5781C30 14.0477 29.7893 13.539 29.4142 13.1639C29.0391 12.7888 28.5304 12.5781 28 12.5781Z" fill="black"/>
</svg>
