<svg width="137" height="190" viewBox="0 0 137 190" fill="none" xmlns="http://www.w3.org/2000/svg">
<path fill-rule="evenodd" clip-rule="evenodd" d="M106.545 89.9807C123.715 108.567 134.107 132.252 136.013 157.072C136.628 164.575 135.255 177.793 133.302 183.879C131.838 188.425 131.447 188.91 129.749 189.287C127.417 189.795 127.368 189.575 129.743 180.458C136.399 154.419 124.448 117.031 101.745 93.1804C96.5751 87.7334 86.8817 80.2982 85.2056 80.4487C84.7167 80.4926 84.5623 81.4044 84.6937 82.964C86.2384 97.5661 82.6806 117.864 76.6444 129.107C69.601 142.235 58.65 143.817 51.7181 132.767C43.5868 119.729 42.914 98.015 50.2719 84.484C55.1958 75.5116 64.7258 69.8668 73.2864 70.8938C76.9801 71.3852 77.0711 71.1526 75.4616 66.8823C71.8172 57.7067 65.1134 49.4044 54.7223 41.2836C39.6207 29.4705 24.8849 22.6378 13.5724 22.1572C9.22903 21.9487 7.76308 21.3321 7.92518 19.5965C8.20004 16.6536 17.1181 16.0772 25.7543 18.5191C35.2773 21.1059 50.507 30.0641 61.9303 39.7384C71.8044 48.2049 77.196 55.7271 81.1319 66.9717L83.3334 73.0594L88.422 75.6703C95.0393 78.967 100.001 82.9361 106.545 89.9807ZM64.2094 134.713C68.8187 134.299 73.8182 126.741 76.8026 115.549C79.3386 106.192 80.8744 90.4903 79.8595 85.0443C79.8362 84.9014 79.8058 84.7196 79.7705 84.5081C79.6053 83.5196 79.3319 81.8834 79.172 80.5417C78.7414 77.7369 78.4275 77.391 75.4392 76.7614C71.4386 75.8487 65.1461 76.4886 62.7216 77.9784C57.8727 80.958 54.1463 86.0067 51.9199 92.7914C46.361 109.304 54.0829 135.622 64.2094 134.713ZM21.056 5.02302C28.5524 1.13224 31.7656 0.0954056 32.7074 1.13321C34.033 2.51069 32.0539 5.90597 29.8191 6.10668C26.7462 6.38265 5.94672 18.5019 5.79871 20.0865C5.77052 20.3884 8.82673 23.2566 12.6928 26.3514C22.4624 34.4532 28.1276 40.5291 27.9232 42.7174C27.6343 45.8113 24.7856 45.1692 20.341 40.8543C18.1222 38.6591 14.2843 35.2625 11.8419 33.237C9.3297 31.2178 5.81986 28.0162 4.06174 26.079C-2.5594 19.1162 0.257815 15.6456 21.056 5.02302Z" fill="url(#paint0_linear_617_54)"/>
<defs>
<linearGradient id="paint0_linear_617_54" x1="12.9135" y1="28.8218" x2="129.42" y2="116.998" gradientUnits="userSpaceOnUse">
<stop stop-color="#22DF79"/>
<stop offset="1" stop-color="#29DEEC"/>
</linearGradient>
</defs>
</svg>
