<svg width="72" height="74" viewBox="0 0 72 74" fill="none" xmlns="http://www.w3.org/2000/svg">
<rect y="0.669434" width="72" height="72.4399" rx="36" fill="#2BA275"/>
<path d="M21.1756 26.7076L26.2952 42.8008H26.4917L31.6217 26.7076H36.5862L29.2843 47.8894H23.5131L16.2008 26.7076H21.1756ZM50.3064 32.7994C50.2237 31.9651 49.8686 31.317 49.2411 30.855C48.6136 30.393 47.7621 30.162 46.6865 30.162C45.9556 30.162 45.3385 30.2655 44.8351 30.4723C44.3318 30.6723 43.9456 30.9515 43.6767 31.3101C43.4147 31.6686 43.2837 32.0754 43.2837 32.5305C43.2699 32.9097 43.3492 33.2407 43.5216 33.5234C43.7009 33.8061 43.9456 34.0509 44.2559 34.2577C44.5662 34.4577 44.9248 34.6335 45.3316 34.7852C45.7384 34.93 46.1728 35.0541 46.6347 35.1576L48.5378 35.6126C49.4617 35.8195 50.3098 36.0953 51.0821 36.4401C51.8544 36.7848 52.5232 37.2089 53.0886 37.7122C53.654 38.2155 54.0918 38.8085 54.4021 39.4911C54.7193 40.1738 54.8813 40.9564 54.8882 41.8389C54.8813 43.1352 54.5503 44.2591 53.8953 45.2106C53.2472 46.1553 52.3094 46.8896 51.0821 47.4136C49.8617 47.9308 48.3896 48.1893 46.6658 48.1893C44.9558 48.1893 43.4664 47.9273 42.1977 47.4033C40.9359 46.8793 39.9499 46.1036 39.2397 45.0762C38.5364 44.0419 38.1675 42.7629 38.1331 41.2391H42.4666C42.5149 41.9493 42.7183 42.5422 43.0769 43.018C43.4423 43.4869 43.9284 43.842 44.5352 44.0833C45.1488 44.3177 45.8418 44.4349 46.6141 44.4349C47.3725 44.4349 48.031 44.3246 48.5895 44.104C49.1549 43.8833 49.5928 43.5765 49.903 43.1835C50.2133 42.7905 50.3685 42.3388 50.3685 41.8286C50.3685 41.3528 50.2271 40.9529 49.9444 40.6288C49.6686 40.3048 49.2618 40.029 48.724 39.8014C48.193 39.5739 47.5415 39.367 46.7692 39.1809L44.4628 38.6017C42.6769 38.1673 41.2669 37.4881 40.2326 36.5642C39.1984 35.6402 38.6847 34.3956 38.6916 32.8305C38.6847 31.548 39.026 30.4275 39.7155 29.4691C40.4119 28.5107 41.3669 27.7625 42.5804 27.2247C43.794 26.6869 45.173 26.418 46.7175 26.418C48.2896 26.418 49.6617 26.6869 50.8339 27.2247C52.0129 27.7625 52.93 28.5107 53.585 29.4691C54.2401 30.4275 54.5779 31.5376 54.5986 32.7994H50.3064Z" fill="white"/>
</svg>
